<svg xmlns="http://www.w3.org/2000/svg" width="32" height="32" viewBox="0 0 800 800"><path fill="#7367f0" d="M425.285 179.578c7.31 6.067 11.329 12.828 14.215 21.797l.893 2.735c8.991 28.645 10.536 58.3 11.052 88.089.094 5.307.202 10.615.309 15.922l.063 3.142c.389 23.592.389 23.592 2.12 47.112l.227 2.128c.491 4.032 1.217 7.762 2.836 11.497l3 1 .522-1.781c2.916-9.844 6.206-19.56 9.492-29.285a911 911 0 0 0 2.56-7.747C478.28 316.984 486.167 299.825 503 291c7.953-3.521 14.669-3.92 22.875-.898 15.141 6.401 21.234 22.72 27.075 36.889 3.893 9.643 7.352 19.433 10.815 29.237 2.587 7.228 5.422 14.089 9.235 20.772 2.427-.183 2.427-.183 5-1 1.478-1.767 1.478-1.767 2.438-4.102l1.251-2.639c.65-1.427.65-1.427 1.311-2.884q1.447-3.035 2.91-6.062l1.528-3.168C591.876 348.21 596.989 339.62 602 331l1.52-2.633c7.494-12.95 15.707-25.251 24.48-37.367l1.759-2.434c8.02-11.068 16.293-21.928 24.749-32.667a897 897 0 0 0 3.867-4.965C665.4 241.946 673.161 232.239 685 230c10.367-1.064 17.484 1.354 25.688 7.625 45.241 42.169 39.603 161.347 43.954 218.342l.508 6.56c1.02 13.183 2.033 26.362 2.096 39.59l.02 2.515c-.047 6.076-1.073 11.109-4.266 16.368l-1.812 3.188c-6.996 8.993-14.323 14.137-25.688 16.25-10.728 1.307-20.108-1.536-28.695-8.122-9.285-8.49-12.755-20.12-15.367-32.066l-.437-1.942C674.917 471.211 671.672 443.614 669 416l-.332-3.41c-2.386-25.723-2.723-51.646-3.565-77.453q-.221-6.713-.45-13.426-.335-9.855-.653-19.711c-4.217.915-4.217.915-7.125 3.797L656 308a241 241 0 0 1-4 5.25c-9.28 12.212-16.363 25.11-22.832 38.996-2.32 4.978-4.7 9.921-7.117 14.852l-1.054 2.15-2.155 4.397c-4.82 9.842-9.59 19.698-14.092 29.69l-1.03 2.286a1496 1496 0 0 0-4.81 10.808c-4.248 9.579-7.879 16.885-16.91 22.571-4.973 1.658-10.265 2.072-15.223.129-12.124-7.125-15.275-19.119-19.246-31.813l-1.964-6.202-1.022-3.243c-5.053-16.004-10.144-31.997-15.538-47.89q-.75-2.21-1.49-4.424c-.679-2.028-1.37-4.05-2.064-6.073l-1.151-3.383c-1.786-4.255-4.036-7.835-7.302-11.101-3.223.085-4.64.663-7 2.875-31.66 49.468-44.662 128.248-50.5 185.375-1.75 16.649-4.906 30.182-18.465 41.285-9.732 7.005-20.248 8.488-32.035 7.465-12.06-2.521-20.835-9.087-28-19-10.183-17.765-11.293-41.046-13.35-60.897-.289-2.773-.588-5.546-.886-8.318-1.85-17.205-3.563-34.423-5.077-51.66l-.227-2.574c-.54-6.18-1.012-12.364-1.46-18.551l-.262-3.505c-1.55-21.128-2.058-42.162-1.999-63.344.012-4.149.005-8.297-.007-12.446-.046-19.657.42-39.118 2.268-58.705l.23-2.458c.425-4.443.94-8.867 1.52-13.292l.506-3.875c1.674-12.054 4.375-23.692 7.744-35.375l.628-2.295c3.266-11.864 8.292-22.176 19.235-28.623 11.114-5.628 25.18-4.577 35.422 2.496"/><path fill="#2f2e41" d="M155.648 176.543c7.044 5.113 10.946 11.15 13.352 19.457 1.35 12.09-1.02 22.164-5.099 33.488-1.565 4.362-3.031 8.758-4.503 13.153l-.898 2.67c-4.437 13.33-7.567 26.962-10.5 40.689l-.454 2.108c-20.643 88.684-20.643 88.684-9.023 176.615 1.805 2.783 3.743 4.414 6.477 6.277 4.471.86 7.4.103 11.25-2.125 16.152-11.868 25.014-33.263 33.666-50.708a619 619 0 0 1 7.022-13.683c9.895-18.781 18.847-37.845 27.263-57.332 1.624-3.758 3.278-7.5 4.94-11.242 10.661-24.176 19.828-48.977 28.347-73.98l1.142-3.34a2004 2004 0 0 0 5.472-16.231c9.163-27.259 9.163-27.259 22.867-34.382 5.583-2.416 11.25-3.095 17.133-1.356 9.903 4.302 15 13.802 18.898 23.379 9.24 24.806 12.038 51.776 14 78l.158 2.074c5.233 69.529 3.418 141.642-4.596 210.864l-.296 2.704c-1.557 12.049-6.1 23.34-15.579 31.233-8.953 6.4-17.807 7.149-28.687 6.125-9.492-2.17-17.241-8.014-22.75-15.937-17.685-30.224-15.261-74.437-15.566-108.387l-.063-5.905q-.082-7.666-.153-15.333-.077-7.864-.161-15.729A37879 37879 0 0 1 249 369a8480 8480 0 0 0-4.25 8.933l-1.2 2.516c-3.662 7.712-7.081 15.518-10.437 23.367-1.374 3.213-2.757 6.422-4.14 9.631l-3.084 7.167c-7.83 18.191-15.911 36.26-24.37 54.168q-1.444 3.06-2.874 6.123C192.89 493.2 186.267 504.226 178 515l-1.824 2.445c-9.355 11.64-24.04 21.69-38.813 24.309-16.921 1.762-31.657-2.446-45.05-13.004-9.4-8.103-16.235-16.948-22.313-27.75l-1.621-2.863c-17.486-32.838-18.61-73.363-18.629-109.7l-.002-3.477C49.808 321.04 56.152 238.851 99 188l1.77-2.117c13.967-15.293 36.812-19.865 54.878-9.34"/></svg>
