<svg width="620" height="620" xmlns="http://www.w3.org/2000/svg" data-name="Layer 1">
 <title>UzonMail</title>

 <g>
  <title>Layer 1</title>
  <polygon id="svg_1" fill="#ffb8b8" points="231.60055541992188,484.138427734375 243.86053466796875,484.138427734375 249.69253540039062,436.8504333496094 231.59854125976562,436.8514404296875 231.60055541992188,484.138427734375 "/>
  <path transform="rotate(179.997 820.952 1158.63)" id="svg_2" fill="#2f2e41" d="m1374.36854,1821.758l38.53073,0a0,0 0 0 1 0,0l0,14.88687a0,0 0 0 1 0,0l-23.64387,0a14.88686,14.88686 0 0 1 -14.88686,-14.88687l0,0a0,0 0 0 1 0,0z"/>
  <polygon id="svg_3" fill="#ffb8b8" points="118.45753479003906,477.10546875 130.4635467529297,479.58746337890625 145.7515411376953,434.46044921875 128.0325469970703,430.79644775390625 118.45753479003906,477.10546875 "/>
  <path transform="rotate(-168.318 447.837 1230.16)" id="svg_4" fill="#2f2e41" d="m886.96782,1889.54999l38.53073,0a0,0 0 0 1 0,0l0,14.88687a0,0 0 0 1 0,0l-23.64387,0a14.88686,14.88686 0 0 1 -14.88686,-14.88686l0,0a0,0 0 0 1 0,-0.00001z"/>
  <path id="svg_5" fill="#ffb8b8" d="m151.71211,324.95688a10.05576,10.05576 0 0 1 1.44213,-15.35174l-9.5133,-34.44527l17.66449,5.72709l6.32583,31.83178a10.11027,10.11027 0 0 1 -15.91915,12.23814z"/>
  <path id="svg_6" fill="#2f2e41" d="m228.01862,466.80033a4.49506,4.49506 0 0 1 -4.44421,-3.7832l-22.84815,-125.89844a1.50011,1.50011 0 0 0 -2.85949,-0.36719l-50.90149,117.76807a4.52779,4.52779 0 0 1 -5.56385,2.481l-17.88025,-6.00781a4.50015,4.50015 0 0 1 -2.73291,-5.9668l24.60889,-60.28227l20.54407,-90.9541l0.14514,-0.11035c0.396,-0.30078 39.91895,-29.80078 66.92676,-6.2041c24.71509,21.59326 20.11583,144.98535 18.94283,169.50146a4.46508,4.46508 0 0 1 -3.41895,4.14746l-19.42651,5.54346a4.56986,4.56986 0 0 1 -1.09188,0.13281z"/>
  <circle id="svg_7" fill="#ffb8b8" r="24.56103" cy="162.54333" cx="189.28874"/>
  <path id="svg_8" fill="#ffb8b8" d="m237.04453,313.95688a10.05576,10.05576 0 0 1 1.44213,-15.35169l-9.5133,-34.44527l17.66449,5.72709l6.32584,31.83178a10.11028,10.11028 0 0 1 -15.91916,12.23814l0,-0.00005z"/>
  <path id="svg_9" fill="#6c63ff" d="m162.06684,304.13871a2.61858,2.61858 0 0 1 -0.9939,-0.19726c-10.37256,-4.21582 -2.10193,-86.51416 -1.74475,-90.01563l0.03955,-0.1499q0.38488,-0.87817 0.77747,-1.7207a29.64947,29.64947 0 0 1 30.07141,-17.33155a30.50589,30.50589 0 0 1 27.13086,22.52783l19.21924,70.41651a4.497,4.497 0 0 1 -5.31922,5.57666c-14.95337,-3.33985 -51.192,-9.269 -64.70153,7.76758c-1.65992,2.09375 -3.13563,3.12646 -4.47913,3.12646z"/>
  <path id="svg_10" fill="#6c63ff" d="m236.54011,297.37797a4.51868,4.51868 0 0 1 -1.44886,-0.24024a4.4632,4.4632 0 0 1 -2.63122,-2.35156l-16.72656,-35.65869l-16.27479,-46.84912a11.10179,11.10179 0 0 1 2.844,-11.67822l0,0a11.08162,11.08162 0 0 1 17.68115,3.38769l21.65637,46.79l16.89795,30.52246a4.50005,4.50005 0 0 1 -1.861,6.17188l-18.067,9.39551a4.47913,4.47913 0 0 1 -2.07004,0.51029z"/>
  <path id="svg_11" fill="#6c63ff" d="m162.54593,306.14408a4.5015,4.5015 0 0 1 -0.48486,-0.02588l-20.25012,-2.14795a4.49977,4.49977 0 0 1 -3.97718,-5.13232l5.75306,-38.96436l12.31042,-48.043a11.10154,11.10154 0 0 1 8.82129,-8.16407l0,0a11.08183,11.08183 0 0 1 12.86816,12.59034l-7.79211,50.96679l-2.77307,34.77735a4.50186,4.50186 0 0 1 -4.47559,4.14306l0,0.00004z"/>
  <path id="svg_12" fill="#2f2e41" d="m193.16933,149.336l20.41134,-1.48649a20.86478,20.86478 0 0 0 -12.72957,-22.38589c-8.70006,-3.30483 -19.49845,0.36613 -22.8408,5.63109a29.04891,29.04891 0 1 0 8.95906,55.62825c-8.42377,-11.82324 -4.09908,-30.61431 6.19997,-37.38696z"/>
  <path id="svg_13" fill="#2f2e41" d="m156.04866,138.06158c-6.3336,-5.78678 -14.07549,-10.4125 -22.59351,-11.43448s-17.82494,2.09912 -22.72888,9.13849s-4.04945,17.98142 2.84868,23.08211a17.82966,17.82966 0 0 1 -7.91612,31.96255c-12.66522,1.92889 -22.20157,14.979 -21.25338,27.75508s11.417,23.91457 23.90346,26.78115s26.14847,-2.06326 34.86327,-11.45371s12.61736,-22.72229 11.62448,-35.495s-6.60059,-24.94086 -14.66186,-34.898c-2.189,-2.70379 -0.54463,-6.99127 2.268,-9.03856s6.39434,-2.6193 9.68655,-3.74334s6.68994,-3.24141 7.44915,-6.63636s-3.08991,-7.35961 -3.48984,-6.01993z"/>
  <path id="svg_18" fill="#ccc" d="m390.45455,496.46293l-381,0a1,1 0 0 1 0,-2l381,0a1,1 0 0 1 0,2z"/>
  <g id="svg_14" stroke="null">
   <path id="svg_15" fill="#7367f0" d="m501.72434,180.59162c2.3329,1.38044 3.61551,2.91878 4.53654,4.95952l0.28499,0.6223c2.86937,6.51766 3.36243,13.26513 3.52711,20.04309c0.03,1.20751 0.06447,2.41526 0.09861,3.62277l0.02011,0.71491c0.12414,5.36794 0.12414,5.36794 0.67657,10.7195l0.07244,0.48419c0.1567,0.91741 0.38839,1.76611 0.90507,2.61594l0.95741,0.22753l0.16659,-0.40524c0.9306,-2.23983 1.98057,-4.45053 3.02925,-6.66328a290.73427,207.28192 0 0 0 0.81699,-1.76269c1.821,-3.91424 4.33804,-7.81846 9.71008,-9.82644c2.5381,-0.80114 4.68143,-0.89193 7.30027,-0.20432c4.83206,1.45643 6.77657,5.16953 8.64065,8.39344c1.2424,2.19409 2.3463,4.42164 3.45147,6.65236c0.82561,1.6446 1.73036,3.2057 2.94723,4.7263c0.77455,-0.04164 0.77455,-0.04164 1.59569,-0.22753c0.47169,-0.40205 0.47169,-0.40205 0.77806,-0.93334l0.39924,-0.60046c0.20744,-0.32469 0.20744,-0.32469 0.41839,-0.6562q0.46179,-0.69056 0.92869,-1.3793l0.48764,-0.72082c1.41633,-2.033 3.04808,-3.9875 4.64728,-5.94883l0.48509,-0.59909c2.39162,-2.94654 5.01269,-5.74542 7.81249,-8.5022l0.56136,-0.55381c2.55948,-2.51833 5.19971,-4.98933 7.89833,-7.4328a286.26635,204.09647 0 0 0 1.2341,-1.1297c2.24194,-2.04506 4.71877,-4.25372 8.49704,-4.76316c3.3085,-0.24209 5.5798,0.30808 8.198,1.73493c14.4381,9.59481 12.6388,36.71165 14.02737,49.67986l0.16212,1.49261c0.32552,2.99956 0.64881,5.99821 0.66891,9.008l0.00638,0.57224c-0.015,1.38249 -0.34243,2.52766 -1.36144,3.72425l-0.57828,0.72537c-2.23269,2.0462 -4.57101,3.21662 -8.198,3.6974c-3.42371,0.29738 -6.41722,-0.34949 -9.15765,-1.84802c-2.96319,-1.93175 -4.0706,-4.57795 -4.90419,-7.29605l-0.13946,-0.44187c-1.94163,-6.16544 -2.97723,-12.44465 -3.82997,-18.72773l-0.10595,-0.77589c-0.76146,-5.85281 -0.86901,-11.75113 -1.13773,-17.62306q-0.07053,-1.52742 -0.14361,-3.05485q-0.10691,-2.24233 -0.2084,-4.48489c-1.3458,0.20819 -1.3458,0.20819 -2.27385,0.86394l-0.27925,0.50125a76.91214,54.83528 0 0 1 -1.27655,1.19454c-2.9616,2.77862 -5.22205,5.71334 -7.28655,8.87285c-0.7404,1.13266 -1.49995,2.25735 -2.2713,3.37931l-0.33637,0.48919l-0.68774,1.00046c-1.53824,2.23937 -3.06053,4.48193 -4.49729,6.75543l-0.32871,0.52014a477.42972,340.38832 0 0 0 -1.53505,2.45917c-1.3557,2.17953 -2.51448,3.84188 -5.39662,5.13563c-1.58707,0.37725 -3.27595,0.47145 -4.85823,0.02935c-3.86922,-1.62117 -4.87483,-4.35019 -6.14212,-7.23848l-0.62679,-1.41116l-0.32616,-0.73789c-1.6126,-3.64143 -3.23733,-7.28035 -4.95876,-10.89652q-0.23935,-0.50285 -0.47551,-1.0066c-0.21669,-0.46144 -0.43722,-0.92151 -0.6587,-1.3818l-0.36733,-0.76974c-0.56998,-0.96815 -1.28804,-1.78272 -2.33034,-2.52584c-1.02858,0.01934 -1.4808,0.15085 -2.23396,0.65416c-10.10389,11.25557 -14.25332,29.18056 -16.11644,42.1788c-0.55849,3.78819 -1.56569,6.86738 -5.89287,9.39367c-3.10585,1.59386 -6.4619,1.93129 -10.22357,1.69853c-3.8488,-0.57361 -6.64923,-2.06759 -8.93585,-4.32311c-3.24978,-4.04211 -3.60402,-9.33929 -4.26049,-13.85603c-0.09223,-0.63095 -0.18765,-1.26189 -0.28276,-1.89261c-0.5904,-3.91469 -1.13709,-7.83234 -1.62026,-11.75432l-0.07244,-0.58567c-0.17233,-1.40615 -0.32297,-2.81321 -0.46594,-4.22095l-0.08361,-0.7975c-0.49466,-4.8073 -0.65678,-9.59322 -0.63796,-14.41281c0.00383,-0.94403 0.0016,-1.88784 -0.00223,-2.83187c-0.01468,-4.4726 0.13404,-8.90061 0.7238,-13.35728l0.0734,-0.55927c0.13563,-1.01093 0.29999,-2.01753 0.48509,-3.02436l0.16148,-0.88169c0.53424,-2.74267 1.39623,-5.3907 2.4714,-8.04896l0.20042,-0.52219c1.0423,-2.69944 2.64629,-5.04576 6.13861,-6.51266c3.54689,-1.28055 8.03588,-1.04142 11.30449,0.56792" stroke="null"/>
   <path id="svg_16" fill="#2f2e41" d="m415.67305,179.90106c2.248,1.16337 3.49328,2.53699 4.26112,4.4271c0.43084,2.75087 -0.32552,5.04303 -1.62728,7.6196c-0.49945,0.9925 -0.96731,1.99273 -1.43708,2.99273l-0.28659,0.60751c-1.41601,3.03301 -2.41491,6.13473 -3.35094,9.25806l-0.14489,0.47964c-6.58796,20.17847 -6.58796,20.17847 -2.87958,40.18562c0.57604,0.63322 1.19453,1.00433 2.06705,1.42822c1.42686,0.19568 2.36162,0.02344 3.5903,-0.48351c5.15471,-2.70035 7.98291,-7.56841 10.74408,-11.53771a197.54612,140.84249 0 0 1 2.24098,-3.11332c3.15787,-4.27328 6.01478,-8.61096 8.70065,-13.04488c0.51828,-0.85507 1.04613,-1.70649 1.57654,-2.55792c3.40233,-5.50082 6.32786,-11.14385 9.04659,-16.83284l0.36446,-0.75996a639.55157,455.97472 0 0 0 1.74632,-3.69308c2.92426,-6.2023 2.92426,-6.2023 7.29772,-7.82302c1.78174,-0.54972 3.5903,-0.70421 5.46778,-0.30853c3.16042,0.97884 4.78706,3.1404 6.03106,5.31948c2.94883,5.64417 3.84178,11.78071 4.46793,17.74752l0.05042,0.4719c1.67005,15.82009 1.09081,32.22813 -1.46676,47.97837l-0.09446,0.61525c-0.4969,2.74154 -1.94674,5.3106 -4.97184,7.10652c-2.85724,1.45621 -5.68288,1.62663 -9.1551,1.39364c-3.02925,-0.49375 -5.50225,-1.82344 -7.26038,-3.62618c-5.64395,-6.87694 -4.87036,-16.93682 -4.96769,-24.66154l-0.02011,-1.34358q-0.02617,-1.74426 -0.04883,-3.48875q-0.02457,-1.78931 -0.05138,-3.57886a12088.60982,8618.69589 0 0 1 -0.09798,-6.98729a2706.2861,1929.47388 0 0 0 -1.35633,2.03255l-0.38297,0.57247c-1.16868,1.75473 -2.25981,3.53085 -3.33084,5.31675c-0.43849,0.73106 -0.87986,1.46121 -1.32123,2.19136l-0.98422,1.63072c-2.49885,4.13904 -5.0778,8.25032 -7.77738,12.32497q-0.46083,0.69625 -0.9172,1.39318c-1.83664,2.79751 -3.95028,5.30628 -6.58859,7.75771l-0.58211,0.55632c-2.98553,2.64848 -7.67207,4.93518 -12.38668,5.53108c-5.40013,0.40091 -10.10294,-0.55654 -14.37714,-2.95883c-2.99989,-1.84369 -5.1812,-3.85622 -7.12092,-6.31402l-0.51732,-0.65142c-5.58044,-7.47171 -5.93915,-16.69245 -5.94521,-24.96029l-0.00064,-0.79113c0.01915,-14.54386 2.04376,-33.24452 15.71816,-44.81476l0.56487,-0.48169c4.45739,-3.47965 11.74809,-4.51993 17.51363,-2.12515" stroke="null"/>
  </g>
 </g>
</svg>
