<svg xmlns="http://www.w3.org/2000/svg" width="720" height="720"><path fill="#2f2e41" d="M151 211h9l8 1h3q15 0 25 11c20 24 9 73 7 101-7 68-7 68 13 131a45 45 0 0 0 26 15q15 1 27-8h3l1-3 2-2c11-9 17-25 21-39l1-3 4-15v-3l2-8 1-2 2-17 1-11 1-3a334 334 0 0 0 1-66v-26l-1-4-1-15v-13l-1-3c0-7 0-7 2-10q9-6 19-5 8 0 12 4 5 8 5 18v3l1 11v3a642 642 0 0 1-2 144l-1 4q-2 17-8 32l-1 2q-17 53-66 80l-22 8-3 1a108 108 0 0 1-100-28l-2-2c-28-26-40-64-43-101v-3l-1-44v-28l-1-6v-34c-1-43-1-43 8-56h2v-2q9-6 20-7l3-1z"/><path fill="#7367f0" d="M592 230q19 15 30 37l2 3q8 15 4 32-2 11-12 15-8 4-17 1-11-7-14-21l-5-14q-4-18-20-28-11-6-24-4c-14 5-24 19-31 32a166 166 0 0 0-14 69l-1 40v3c1 26 3 55 22 75q4 5 10 6l3 1q18 5 36-3l19-13c17-12 17-12 26-12q10 3 14 12 4 11-1 20c-14 23-40 34-65 40-36 8-79 6-112-13l-13-10-3-2a142 142 0 0 1-42-81q-5-21-4-44v-3q0-22 4-44l1-3a172 172 0 0 1 36-77l7-5v-2c45-41 116-45 164-7"/></svg>
